<svg xmlns="http://www.w3.org/2000/svg" viewBox="0 0 146.67 102.66" height="30px"><defs><style>.cls-1{fill:#f98633}.cls-2{fill:#a14e24}</style></defs><g id="Layer_2"><g id="Layer_1-2"><path class="cls-1" d="M102 59.53A51.34 51.34 0 1143.13.65a7.07 7.07 0 018.2 7v.54a7.11 7.11 0 01-6 7 36.68 36.68 0 1042.18 42.18 7.13 7.13 0 017-6H95a7.07 7.07 0 017 8.16z"/><path class="cls-2" d="M94.5 51.33a7.13 7.13 0 00-7 6 36.71 36.71 0 01-14.18 23.33 36.37 36.37 0 0014.62 6.6A51.27 51.27 0 00102 59.53a7.07 7.07 0 00-7-8.2z"/><path class="cls-1" d="M146.52 47.39a51.4 51.4 0 01-43 54.62 7.07 7.07 0 01-8.2-7v-.51a7.12 7.12 0 016-7 36.68 36.68 0 10-42.16-42.21 7.12 7.12 0 01-7 6h-.54a7.07 7.07 0 01-7-8.2 51.34 51.34 0 01101.86 4.26z"/><path class="cls-2" d="M52.17 51.33a7.12 7.12 0 007-6A36.7 36.7 0 0173.35 22a36.51 36.51 0 00-14.62-6.6 51.27 51.27 0 00-14.07 27.73 7.07 7.07 0 007 8.2z"/><circle class="cls-1" cx="95.48" cy="51.19" r="15.7"/><circle class="cls-1" cx="51.33" cy="51.33" r="15.7"/><circle class="cls-2" cx="51.33" cy="51.33" r="6.8"/><circle class="cls-2" cx="95.48" cy="51.19" r="6.8"/></g></g></svg>
