<svg xmlns="http://www.w3.org/2000/svg" viewBox="0 0 146.67 102.66"><defs><style>.cls-1{fill:#f98633;}.cls-2{fill:#a14e24;}</style></defs><g id="Layer_2" data-name="Layer 2"><g id="Layer_1-2" data-name="Layer 1"><path class="cls-1" d="M102,59.53A51.34,51.34,0,1,1,43.13.65a7.07,7.07,0,0,1,8.2,7v.54a7.11,7.11,0,0,1-6,7A36.68,36.68,0,1,0,87.51,57.37a7.13,7.13,0,0,1,7-6H95A7.07,7.07,0,0,1,102,59.53Z"/><path class="cls-2" d="M94.5,51.33a7.13,7.13,0,0,0-7,6A36.71,36.71,0,0,1,73.32,80.66a36.37,36.37,0,0,0,14.62,6.6A51.27,51.27,0,0,0,102,59.53a7.07,7.07,0,0,0-7-8.2Z"/><path class="cls-1" d="M146.52,47.39a51.4,51.4,0,0,1-43,54.62,7.07,7.07,0,0,1-8.2-7V94.5a7.12,7.12,0,0,1,6-7A36.68,36.68,0,1,0,59.16,45.29a7.12,7.12,0,0,1-7,6h-.54a7.07,7.07,0,0,1-7-8.2,51.34,51.34,0,0,1,101.86,4.26Z"/><path class="cls-2" d="M52.17,51.33a7.12,7.12,0,0,0,7-6A36.7,36.7,0,0,1,73.35,22a36.51,36.51,0,0,0-14.62-6.6A51.27,51.27,0,0,0,44.66,43.13a7.07,7.07,0,0,0,7,8.2Z"/><circle class="cls-1" cx="95.48" cy="51.19" r="15.7"/><circle class="cls-1" cx="51.33" cy="51.33" r="15.7"/><circle class="cls-2" cx="51.33" cy="51.33" r="6.8"/><circle class="cls-2" cx="95.48" cy="51.19" r="6.8"/></g></g></svg>